<svg version="1.1" xmlns="http://www.w3.org/2000/svg" xmlns:xlink="http://www.w3.org/1999/xlink" width="674" height="435.5" viewBox="0,0,674,435.5"><defs><linearGradient x1="319.5" y1="-2" x2="319.5" y2="139" gradientUnits="userSpaceOnUse" id="color-1"><stop offset="0" stop-color="#038264"/><stop offset="1" stop-color="#38af9c"/></linearGradient><linearGradient x1="320" y1="138" x2="320" y2="363" gradientUnits="userSpaceOnUse" id="color-2"><stop offset="0" stop-color="#38af9c"/><stop offset="1" stop-color="#2b8c7b"/></linearGradient></defs><g transform="translate(14.00001,72.5)"><g stroke-miterlimit="10"><path d="M-0.5,139v-141h640v141z" fill="url(#color-1)" stroke="none" stroke-width="0" stroke-linecap="butt"/><path d="M-6.5,363v-225h653v225z" fill="url(#color-2)" stroke="none" stroke-width="0" stroke-linecap="butt"/><path d="M180.5,48.5c0,4.69442 -10.29745,8.5 -23,8.5c-12.70255,0 -23,-3.80558 -23,-8.5c0,-4.69442 10.29745,-8.5 23,-8.5c12.70255,0 23,3.80558 23,8.5z" fill="#38af9c" stroke="none" stroke-width="0" stroke-linecap="butt"/><path d="M291.5,27.5c0,4.69442 -10.29745,8.5 -23,8.5c-12.70255,0 -23,-3.80558 -23,-8.5c0,-4.69442 10.29745,-8.5 23,-8.5c12.70255,0 23,3.80558 23,8.5z" fill="#38af9c" stroke="none" stroke-width="0" stroke-linecap="butt"/><path d="M313.08824,18.97826c0,3.32571 -7.29512,6.02174 -16.29412,6.02174c-8.99899,0 -16.29412,-2.69602 -16.29412,-6.02174c0,-3.32571 7.29512,-6.02174 16.29412,-6.02174c8.99899,0 16.29412,2.69602 16.29412,6.02174z" fill="#38af9c" stroke="none" stroke-width="0" stroke-linecap="butt"/><path d="M451.5,13.5c0,4.69442 -10.29745,8.5 -23,8.5c-12.70255,0 -23,-3.80558 -23,-8.5c0,-4.69442 10.29745,-8.5 23,-8.5c12.70255,0 23,3.80558 23,8.5z" fill="#38af9c" stroke="none" stroke-width="0" stroke-linecap="butt"/><path d="M516.5,-2.5c0,4.69442 -10.29745,8.5 -23,8.5c-12.70255,0 -23,-3.80558 -23,-8.5c0,-4.69442 10.29745,-8.5 23,-8.5c12.70255,0 23,3.80558 23,8.5z" fill="#38af9c" stroke="none" stroke-width="0" stroke-linecap="butt"/><path d="M-7.5,137c0,0 69.84512,-96.15203 94.00991,-95.4596c19.25605,0.55177 63.97165,50.49065 63.97165,50.49065c0,0 18.94457,-22.72224 29.7731,-20.43266c15.10762,3.19434 52.09317,53.999 52.09317,53.999c0,0 36.56097,-43.61457 51.11794,-47.76c13.57787,-3.86661 26.26138,17.30621 26.26138,17.30621c0,0 48.64378,-54.48674 65.82522,-54.4326c18.6692,0.05883 87.77583,82.27058 87.77583,82.27058c0,0 60.7673,-88.32303 83.00125,-87.1742c20.50073,1.05927 102.17054,101.19263 102.17054,101.19263z" fill="#38af9c" stroke="none" stroke-width="0" stroke-linecap="butt"/><path d="M-9.00001,233h664" fill="none" stroke="#ffffff" stroke-width="10" stroke-linecap="round"/><path d="M282.5,233c0,-20.71068 16.78932,-37.5 37.5,-37.5c20.71068,0 37.5,16.78932 37.5,37.5c0,20.71068 -16.78932,37.5 -37.5,37.5c-20.71068,0 -37.5,-16.78932 -37.5,-37.5z" fill="#ff0000" stroke="#ffffff" stroke-width="10" stroke-linecap="butt"/><ellipse cx="581.99999" cy="-140" transform="scale(0.5,0.5)" rx="0" ry="0" fill="#ff0000" stroke="#ffffff" stroke-width="10" stroke-linecap="butt"/></g></g></svg>