<svg version="1.1" xmlns="http://www.w3.org/2000/svg" xmlns:xlink="http://www.w3.org/1999/xlink" width="674" height="374" viewBox="0,0,674,374"><defs><linearGradient x1="319.5" y1="-2" x2="319.5" y2="139" gradientUnits="userSpaceOnUse" id="color-1"><stop offset="0" stop-color="#915203"/><stop offset="1" stop-color="#bc935a"/></linearGradient><linearGradient x1="320" y1="137" x2="320" y2="363" gradientUnits="userSpaceOnUse" id="color-2"><stop offset="0" stop-color="#bc935a"/><stop offset="1" stop-color="#967447"/></linearGradient></defs><g transform="translate(14.00001,11)"><g stroke-miterlimit="10"><path d="M-0.5,139v-141h640v141z" fill="url(#color-1)" stroke="none" stroke-width="0" stroke-linecap="butt"/><path d="M-6.5,363v-226h653v226z" fill="url(#color-2)" stroke="none" stroke-width="0" stroke-linecap="butt"/><path d="M181.5,48.5c0,4.69442 -10.29745,8.5 -23,8.5c-12.70255,0 -23,-3.80558 -23,-8.5c0,-4.69442 10.29745,-8.5 23,-8.5c12.70255,0 23,3.80558 23,8.5z" fill="#bc935a" stroke="none" stroke-width="0" stroke-linecap="butt"/><path d="M291.5,27.5c0,4.69442 -10.29745,8.5 -23,8.5c-12.70255,0 -23,-3.80558 -23,-8.5c0,-4.69442 10.29745,-8.5 23,-8.5c12.70255,0 23,3.80558 23,8.5z" fill="#bc935a" stroke="none" stroke-width="0" stroke-linecap="butt"/><path d="M313.08824,18.97826c0,3.32571 -7.29512,6.02174 -16.29412,6.02174c-8.99899,0 -16.29412,-2.69602 -16.29412,-6.02174c0,-3.32571 7.29512,-6.02174 16.29412,-6.02174c8.99899,0 16.29412,2.69602 16.29412,6.02174z" fill="#bc935a" stroke="none" stroke-width="0" stroke-linecap="butt"/><path d="M451.5,13.5c0,4.69442 -10.29745,8.5 -23,8.5c-12.70255,0 -23,-3.80558 -23,-8.5c0,-4.69442 10.29745,-8.5 23,-8.5c12.70255,0 23,3.80558 23,8.5z" fill="#bc935a" stroke="none" stroke-width="0" stroke-linecap="butt"/><path d="M516.5,-2.5c0,4.69442 -10.29745,8.5 -23,8.5c-12.70255,0 -23,-3.80558 -23,-8.5c0,-4.69442 10.29745,-8.5 23,-8.5c12.70255,0 23,3.80558 23,8.5z" fill="#bc935a" stroke="none" stroke-width="0" stroke-linecap="butt"/><path d="M-7.5,137l94.00991,-95.4596l65.97165,55.49065l27.7731,-25.43266l52.09317,53.999l51.11794,-47.76l34.26138,27.30621l57.82522,-64.4326l87.77583,82.27058l83.00125,-87.1742l102.17054,101.19263z" fill="#bc935a" stroke="none" stroke-width="0" stroke-linecap="butt"/><path d="M-9,233h664" fill="none" stroke="#ffffff" stroke-width="10" stroke-linecap="round"/><path d="M282.5,233c0,-20.71068 16.78932,-37.5 37.5,-37.5c20.71068,0 37.5,16.78932 37.5,37.5c0,20.71068 -16.78932,37.5 -37.5,37.5c-20.71068,0 -37.5,-16.78932 -37.5,-37.5z" fill="#ff0000" stroke="#ffffff" stroke-width="10" stroke-linecap="butt"/></g></g></svg>